<?xml version="1.0" standalone="no"?>
<!DOCTYPE svg PUBLIC "-//W3C//DTD SVG 20010904//EN"
 "http://www.w3.org/TR/2001/REC-SVG-20010904/DTD/svg10.dtd">
<svg version="1.0" xmlns="http://www.w3.org/2000/svg"
 width="1920.000000pt" height="1920.000000pt" viewBox="0 0 1920.000000 1920.000000"
 preserveAspectRatio="xMidYMid meet">
<metadata>
Created by potrace 1.11, written by Peter Selinger 2001-2013
</metadata>
<g transform="translate(0.000000,1920.000000) scale(0.100000,-0.100000)"
fill="#000000" stroke="none">
<path d="M11045 14628 c-207 -14 -406 -65 -524 -135 -88 -53 -207 -180 -254
-274 -57 -113 -78 -211 -79 -359 -1 -149 16 -230 72 -345 116 -239 335 -373
675 -414 50 -6 194 -14 321 -17 l232 -7 0 -954 c0 -524 -3 -953 -7 -953 -5 0
-83 45 -174 99 -560 337 -1153 545 -1727 606 -30 4 -68 8 -85 10 -16 3 -120 7
-230 11 -660 22 -1285 -108 -1840 -381 -693 -341 -1318 -943 -1692 -1630 -231
-425 -362 -861 -418 -1395 -16 -158 -14 -658 5 -810 63 -524 204 -947 455
-1364 302 -501 783 -961 1306 -1246 597 -326 1260 -481 2074 -483 274 0 328 3
560 29 268 30 583 97 845 180 248 78 632 245 836 363 39 22 76 41 82 41 7 0
11 -43 10 -132 0 -73 0 -157 1 -186 l1 -53 1023 4 c977 4 1027 5 1132 25 315
58 498 175 607 387 71 139 99 303 79 461 -48 364 -291 591 -696 652 -124 19
-176 22 -387 23 l-208 2 0 4123 0 4124 -62 0 c-1228 4 -1845 4 -1933 -2z
m-1670 -4288 c569 -47 1041 -266 1445 -670 411 -411 624 -882 659 -1462 32
-533 -113 -983 -439 -1355 -354 -406 -872 -645 -1525 -703 -471 -42 -959 3
-1324 121 -343 111 -580 254 -816 493 -284 288 -438 598 -507 1021 -17 105
-17 480 1 605 34 242 97 456 197 661 111 227 231 395 423 592 211 216 405 360
636 472 380 185 804 261 1250 225z"/>
<path d="M5280 2830 l0 -240 4530 0 4530 0 0 240 0 240 -4530 0 -4530 0 0
-240z"/>
</g>
</svg>
