<svg xmlns="http://www.w3.org/2000/svg" viewBox="0 0 52 52"><defs><style>.cls-1{fill:#333;}.cls-2{fill:#fff;}</style></defs><title>Instagram</title><g id="Layer_2" data-name="Layer 2"><g id="svg3002"><g id="g4160"><path id="path3214" class="cls-1" d="M26,0A26,26,0,1,0,52,26,26,26,0,0,0,26,0Z"/><path id="rect4122" class="cls-2" d="M17.47,13.41a4,4,0,0,0-4.06,4.06V34.53a4,4,0,0,0,4.06,4.06H34.53a4,4,0,0,0,4.06-4.06V17.47a4,4,0,0,0-4.06-4.06ZM31,16.23h3.83a.92.92,0,0,1,.92.92V21a.92.92,0,0,1-.92.92H31a.92.92,0,0,1-.92-.92V17.16A.92.92,0,0,1,31,16.23Zm-5,5a5.11,5.11,0,1,1-5.13,5.12A5.09,5.09,0,0,1,26,21.2ZM15.5,24.31H19a7.28,7.28,0,1,0,14,0H36.5v9.87a2.73,2.73,0,0,1-2.73,2.73H18.22a2.72,2.72,0,0,1-2.72-2.73Z"/></g></g></g></svg>