<svg xmlns="http://www.w3.org/2000/svg" viewBox="0 0 52 52"><defs><style>.cls-1{fill:#333;}.cls-2{fill:#fff;}</style></defs><title>Asset 2</title><g id="Layer_2" data-name="Layer 2"><g id="svg3002"><g id="g7293"><path id="path3186" class="cls-1" d="M26,0A26,26,0,1,0,52,26,26,26,0,0,0,26,0Z"/><path id="path9" class="cls-2" d="M19.42,32.39V15.29A61.38,61.38,0,0,1,27,13.19a92.19,92.19,0,0,1,9.23-.91v21a5,5,0,0,1-5.18,3.39c-4.24-.11-5.14-4.64-2.2-6.56a5.22,5.22,0,0,1,5.26-.62V20s-7.77.34-12.24,2.15c0,0-.06,12.38-.06,14s-2.21,3.62-5.32,3.51a3.56,3.56,0,0,1-3.17-5.48C14.8,31.74,18.53,32,19.42,32.39Z"/></g></g></g></svg>