<?xml version="1.0" encoding="utf-8"?>
<!-- Generator: Adobe Illustrator 22.0.1, SVG Export Plug-In . SVG Version: 6.00 Build 0)  -->
<svg version="1.1" id="Layer_1" xmlns="http://www.w3.org/2000/svg" xmlns:xlink="http://www.w3.org/1999/xlink" x="0px" y="0px"
	 viewBox="0 0 52 52" style="enable-background:new 0 0 52 52;" xml:space="preserve">
<style type="text/css">
	.st0{fill:#333333;}
	.st1{fill:#FFFFFF;}
</style>
<title>Asset 2</title>
<g id="Layer_2_1_">
	<g id="svg3002">
		<g id="g7293">
			<path id="path3186" class="st0" d="M26,0C11.6,0,0,11.6,0,26s11.6,26,26,26s26-11.6,26-26S40.4,0,26,0z"/>
			<g>
				<path class="st1" d="M37.1,27.9c1.2,0,2.1-0.5,3.1-0.6c0.3,0.2,0.3,0.4,0.2,0.7c-1.1,0.3-2.2,0.6-3.4,0.9
					c-0.1,0.5-0.3,1-0.4,1.6c1.3,0,2.5,0,3.7,0c0.3,0.3,0.2,0.5,0.1,0.8c-1.4,0-2.8,0-4.1,0c-0.3,0.4-0.5,0.7-0.6,1.2
					c1.6,0.3,3.2,0.6,4.7,1c0.2,0.3,0.1,0.5,0,0.8c-1.8-0.3-3.5-0.7-5.3-1c-5.3,5.6-13.8,5.3-18.7,0.2c-1.4,0.3-2.9,0.5-4.4,0.8
					c-0.4-0.1-0.3-0.4-0.4-0.6c1.3-0.5,2.8-0.5,4.1-1c-0.1-0.5-0.4-0.8-0.7-1.3c-1,0-2.1,0-3.1,0c-0.3-0.3-0.3-0.5-0.2-0.9
					c0.9,0,1.8,0,2.8,0c-0.2-0.7-0.3-1.3-0.5-1.9c-0.9-0.2-1.7-0.5-2.4-0.7c-0.1-0.3-0.1-0.5,0.1-0.7c0.7-0.1,1.4,0.4,2.3,0.3
					c-0.1-2,0.5-3.8,1.5-5.5c-0.2-2.4-0.4-4.9-0.6-7.5c2.3,1,4.5,2,6.7,3c2.6-0.7,5.2-0.8,8,0.1c2.2-0.9,4.4-1.9,6.7-2.8
					c0,1.6-0.2,3-0.3,4.5c-0.2,1.6-0.4,3.2,0.5,4.7C37.2,25.2,37.2,26.5,37.1,27.9z M25.2,31.9c1-0.1,1.9-1.1,2.2-2.3
					c-1.3-0.1-2.5-0.1-3.8,0.1C23.9,30.7,24.7,31.2,25.2,31.9z"/>
			</g>
		</g>
	</g>
</g>
</svg>
