<?xml version="1.0" encoding="utf-8"?>
<!-- Generator: Adobe Illustrator 22.0.1, SVG Export Plug-In . SVG Version: 6.00 Build 0)  -->
<svg version="1.1" id="Layer_1" xmlns="http://www.w3.org/2000/svg" xmlns:xlink="http://www.w3.org/1999/xlink" x="0px" y="0px"
	 viewBox="0 0 52 52" style="enable-background:new 0 0 52 52;" xml:space="preserve">
<style type="text/css">
	.st0{fill:#333333;}
	.st1{fill:#FFFFFF;}
</style>
<title>Asset 3</title>
<g id="Layer_2_1_">
	<g id="svg3002">
		<path id="path3403" class="st0" d="M26,0C11.6,0,0,11.6,0,26s11.6,26,26,26s26-11.6,26-26S40.4,0,26,0z"/>
		<g>
			<path class="st1" d="M29.1,32.1c-0.5,1.2-0.5,2.4,0,3.6c-0.2,0-0.3,0-0.4,0c-1.7,0-3.3,0-5,0c-3.2,0-5.7-2.5-5.7-5.7
				c-0.1-2.7,1.8-5.2,4.4-5.7c0.5-0.1,1-0.2,1.5-0.2c1.6,0,3.2,0,4.8,0c1.2,0,2.1-0.9,2.1-2.1c0-1.2-0.9-2.1-2.1-2.1
				c-3.7,0-7.4,0-11,0c-0.2,0-0.3,0-0.6,0c0.5-0.5,0.9-1,1.3-1.4c0.3-0.3,0.3-0.6,0-0.9c-0.4-0.4-0.7-0.8-1.1-1.2
				c0.1-0.1,0.3-0.1,0.4-0.1c3.6,0,7.3,0.1,10.9,0c3.1-0.1,6,2.5,5.8,6.1c-0.2,2.9-2.6,5.3-5.8,5.3c-1.6,0-3.2,0-4.8,0
				c-1.7,0-2.7,1.5-2.1,3c0.3,0.9,1.1,1.4,2.1,1.4c1.6,0,3.2,0,4.8,0C28.7,32.1,28.9,32.1,29.1,32.1z"/>
			<path class="st1" d="M31.7,35.7c-0.2,0-0.4,0-0.5,0c-1.2,0-1.2,0-1.5-1.2c-0.1-0.4-0.1-0.8,0-1.2c0.2-1.1,0.3-1.2,1.5-1.2
				c0.2,0,0.4,0,0.6,0c1.4-0.2,2.2,0.7,3,1.6c0.2,0.2,0.1,0.3,0,0.4c-0.4,0.5-0.9,0.9-1.4,1.3C32.8,35.8,32.2,35.6,31.7,35.7z
				 M32.4,33c-0.2,0.1-0.4,0.2-0.4,0.5c0,0.3,0.2,0.5,0.4,0.5c0.3,0,0.5-0.2,0.5-0.4C32.8,33.2,32.6,33,32.4,33z"/>
		</g>
	</g>
</g>
</svg>
