<svg xmlns="http://www.w3.org/2000/svg" viewBox="0 0 52 52"><defs><style>.cls-1{fill:#333;}.cls-2{fill:#fff;}</style></defs><title>Asset 3</title><g id="Layer_2" data-name="Layer 2"><g id="svg3002"><path id="path3403" class="cls-1" d="M26,0A26,26,0,1,0,52,26,26,26,0,0,0,26,0Z"/><path id="path10" class="cls-2" d="M10.52,27.35a.13.13,0,0,0-.13.12l-.23,1.76L10.39,31a.13.13,0,0,0,.13.12.13.13,0,0,0,.13-.12h0l.27-1.73-.27-1.76a.13.13,0,0,0-.13-.12Zm1.3-1a.13.13,0,0,0-.26,0l-.31,2.85L11.55,32a.13.13,0,0,0,.26,0l.35-2.78Zm4.91-2.62a.24.24,0,0,0-.24.24l-.25,5.24.25,3.38a.24.24,0,0,0,.48,0h0l.28-3.38L17,24a.25.25,0,0,0-.24-.24Zm-2.54,1.82a.19.19,0,0,0-.19.18l-.28,3.47L14,32.59a.19.19,0,0,0,.37,0l.32-3.36-.32-3.47a.19.19,0,0,0-.19-.18Zm5.12,7.27a.3.3,0,0,0,.29-.29l.24-3.33-.24-7a.29.29,0,0,0-.59,0l-.22,7L19,32.57a.3.3,0,0,0,.29.29Zm5.29,0a.41.41,0,0,0,.4-.4h0l.17-3.23L25,21.19a.4.4,0,0,0-.8,0l-.15,8,.15,3.24a.41.41,0,0,0,.4.4Zm-2.66,0a.35.35,0,0,0,.35-.35h0l.21-3.28-.21-7a.35.35,0,0,0-.7,0l-.18,7,.18,3.28a.35.35,0,0,0,.35.34Zm-6.48,0a.22.22,0,0,0,.21-.21l.3-3.38L15.66,26a.21.21,0,0,0-.43,0L15,29.23l.26,3.38a.22.22,0,0,0,.21.21Zm-2.52-.19a.16.16,0,0,0,.16-.16l.34-3.25-.34-3.38a.16.16,0,0,0-.16-.16.16.16,0,0,0-.16.16l-.3,3.38.3,3.25a.16.16,0,0,0,.16.16ZM23.26,22.1a.38.38,0,0,0-.38.37l-.17,6.76.17,3.26a.38.38,0,0,0,.75,0h0l.19-3.26-.19-6.77a.38.38,0,0,0-.37-.37ZM18,32.86a.27.27,0,0,0,.27-.26l.26-3.36-.26-6.43a.27.27,0,0,0-.53,0l-.23,6.43.23,3.36a.27.27,0,0,0,.27.26Zm2.92-.32h0l.22-3.31L20.94,22a.32.32,0,0,0-.64,0l-.2,7.21.2,3.31a.32.32,0,0,0,.64,0Zm17-7.46a3.89,3.89,0,0,0-1.51.3,6.88,6.88,0,0,0-6.85-6.27,7,7,0,0,0-2.49.47c-.29.11-.37.23-.38.46V32.41a.47.47,0,0,0,.42.46h10.8a3.9,3.9,0,0,0,0-7.8ZM25.92,20a.43.43,0,0,0-.43.43l-.18,8.78.18,3.19a.43.43,0,0,0,.86,0h0l.19-3.19-.19-8.78a.43.43,0,0,0-.43-.43Z"/></g></g></svg>